# xmcd
#
# Track frame offsets:
#	150
#	15625
#	30318
#	42838
#	53608
#	64658
#	84153
#	98440
#	118155
#	132398
#	146283
#	161338
#	180768
#	195775
#	210140
#	225393
#
# Disc length: 3161 seconds
#
# Revision: 4
# Processed by: cddbd v1.5.2PL0 Copyright (c) Steve Scherf et al.
# Submitted via: EasyCDDAExtractor 16.0.6.1
#
DISCID=aa0c5710
DTITLE=Varios - R-242 Star Collection Vol.3
DYEAR=1900
DGENRE=Blues
TTITLE0=Jean, Sherrie and Linda Of The Supremes - Baby love
TTITLE1=Billy Ocean - Love really hurts
TTITLE2=Mary Wells - My guy
TTITLE3=The Tymes - So much in love
TTITLE4=Brook Benton - A rockin' good way
TTITLE5=Bobby Tylor and The Vancouvers - You haven't seen my love
TTITLE6=Barry Blue - Dancing on a saturday night
TTITLE7=Gladys Knight and The Pipes - I can see clearly now
TTITLE8=Gloria Gaynor - What a wonderful world
TTITLE9=Eddie Floyd - Knock on wood
TTITLE10=George McCrae - Rock your baby
TTITLE11=Billy Griffin - Disenchanted broken hearted
TTITLE12=Harold Melvin and The Blue Notes - Satisfaction guaranteed
TTITLE13=Sam and Dave - You send me
TTITLE14=Nino Tempo and April Stevens - Love will keep us together
TTITLE15=Martha Reeves - Dancin' in the street
EXTD=
EXTT0=
EXTT1=
EXTT2=
EXTT3=
EXTT4=
EXTT5=
EXTT6=
EXTT7=
EXTT8=
EXTT9=
EXTT10=
EXTT11=
EXTT12=
EXTT13=
EXTT14=
EXTT15=
PLAYORDER=
